<svg id="archimage" height="120px" width="600px" data-name="Layer 1" xmlns="http://www.w3.org/2000/svg" viewBox="0 0 692.7 128.3">
    <title>Residential</title>
    <line x1="137" y1="12.7" x2="1" y2="12.7" fill="none" stroke="#fff" stroke-miterlimit="10" stroke-width="2" />
    <line x1="1" y1="70" x2="1" y2="11.7" fill="none" stroke="#fff" stroke-miterlimit="10" stroke-width="2" />
    <line x1="51.2" y1="70" y2="70" fill="none" stroke="#fff" stroke-miterlimit="10" stroke-width="2" />
    <line x1="137" y1="38.3" x2="137" y2="11.7" fill="none" stroke="#fff" stroke-miterlimit="10" stroke-width="2" />
    <line x1="142.7" y1="5.7" x2="142.7" y2="40.1" fill="none" stroke="#fff" stroke-miterlimit="10" stroke-width="2" />
    <line x1="31.7" x2="31.7" y2="128.3" fill="none" stroke="#fff" stroke-miterlimit="10" stroke-width="2" />
    <line x1="13" y1="116.3" x2="170" y2="116.3" fill="none" stroke="#fff" stroke-miterlimit="10" stroke-width="2" />
    <polygon points="51.8 42.7 101.2 26.7 148.8 42.7 148.8 102 51.8 102 51.8 42.7" fill="none" stroke="#fff" stroke-miterlimit="10" stroke-width="2" />
    <rect x="123.6" y="48.7" width="16.7" height="21.3" fill="none" stroke="#fff" stroke-miterlimit="10" stroke-width="2" />
    <polyline points="87.8 102 87.8 48.7 112.8 48.7 112.8 102" fill="none" stroke="#fff" stroke-miterlimit="10" stroke-width="2" />
    <line x1="51.7" y1="89" x2="148.7" y2="89" fill="none" stroke="#fff" stroke-miterlimit="10" stroke-width="2" />
    <circle cx="132" cy="95.2" r="5.2" fill="none" stroke="#fff" stroke-miterlimit="10" stroke-width="2" />
    <rect x="60.6" y="48.7" width="16.7" height="21.3" fill="none" stroke="#fff" stroke-miterlimit="10" stroke-width="2" />
    <circle cx="69" cy="95.2" r="5.2" fill="none" stroke="#fff" stroke-miterlimit="10" stroke-width="2" />
    <line x1="148.7" y1="75.3" x2="692.7" y2="75.3" fill="none" stroke="#fff" stroke-miterlimit="10" stroke-width="2" />
</svg>