<svg class="svg-element" id="Layer_1" data-name="Layer 1" xmlns="http://www.w3.org/2000/svg" viewBox="0 0 40.06 8.76">
    <path class="cls-1" d="M.41,1H2l2.56,4L7.09,1H8.66v8.4H7.2v-6l-2.65,4h0L1.87,3.35v6H.41Z" transform="translate(-0.26 -0.74)" />
    <path class="cls-1" d="M10.82,1H17V2.28H12.29V4.44H16.5V5.78H12.29V8H17.1V9.35H10.82Z" transform="translate(-0.26 -0.74)" />
    <path class="cls-1" d="M18.86,1H22a5,5,0,0,1,1.81.32,4.26,4.26,0,0,1,1.42.88,3.93,3.93,0,0,1,.92,1.33,4.18,4.18,0,0,1,.32,1.65v0a4.22,4.22,0,0,1-.32,1.66,3.91,3.91,0,0,1-.92,1.33A4.34,4.34,0,0,1,23.8,9,4.88,4.88,0,0,1,22,9.35H18.86ZM22,8a3.27,3.27,0,0,0,1.2-.21,2.62,2.62,0,0,0,.92-.59,2.67,2.67,0,0,0,.59-.9,3,3,0,0,0,.21-1.14v0A3.08,3.08,0,0,0,24.69,4a2.65,2.65,0,0,0-.59-.91,2.7,2.7,0,0,0-.92-.6A3.19,3.19,0,0,0,22,2.28H20.33V8Z" transform="translate(-0.26 -0.74)" />
    <path class="cls-1" d="M28.33,1H29.8v8.4H28.33Z" transform="translate(-0.26 -0.74)" />
    <path class="cls-1" d="M35,.89H36.4l3.7,8.46H38.53l-.85-2h-4l-.86,2H31.33ZM37.14,6,35.69,2.66,34.25,6Z" transform="translate(-0.26 -0.74)" />
</svg>