<svg class="svg-element" id="Layer_1" data-name="Layer 1" xmlns="http://www.w3.org/2000/svg" viewBox="0 0 337.31 44.08">
	<path class="cls-1" d="M41.9,30.5C41.9,43,34.76,52,22.64,52S3.44,43,3.44,30.5,10.58,9,22.64,9,41.9,17.9,41.9,30.5Zm-4.14,0C37.76,18.86,31.58,12,22.64,12S7.58,18.86,7.58,30.5,13.76,49,22.64,49,37.76,42.08,37.76,30.5Z" transform="translate(-2.94 -8.46)"/>
	<path class="cls-1" d="M82.16,36.38c0,1.2-.06,2.4-.18,3.84C81.5,46.94,76.88,52,67.46,52s-14-5.1-14.58-11.82c-.12-1.44-.12-2.64-.12-3.84V9.8h3.72V36.2a35.62,35.62,0,0,0,.12,3.66C57.08,45.08,60.5,49,67.46,49s10.32-4,10.8-9.18a34.73,34.73,0,0,0,.18-3.66V9.8h3.72Z" transform="translate(-2.94 -8.46)"/>
	<path class="cls-1" d="M123.86,51.2h-4.14a38.21,38.21,0,0,1-2.34-10.62c-.54-4.38-2.34-7.8-6.78-8-1.08-.06-2.28-.06-3.24-.06H98.9V51.2H95.18V9.8h12.18A42.91,42.91,0,0,1,113,10c6.12.78,10.2,4.14,10.2,10.74a9.74,9.74,0,0,1-7.8,9.84c3.54,1.44,5.28,5.22,5.7,9.54C121.7,45.86,122.42,48.86,123.86,51.2ZM107.42,29.36c1.8,0,2.82,0,4.2-.12,4.56-.36,7.56-3.3,7.56-8.16s-2.58-7.26-7.08-7.92a36.1,36.1,0,0,0-4.74-.24H98.9V29.36Z" transform="translate(-2.94 -8.46)"/>
	<path class="cls-1" d="M175.1,20.9h-3.9c-.72-5.64-4.32-8.94-9.78-8.94-4.74,0-9.12,2.46-9.12,7.38s2.94,6.9,10,8.7c8.88,2.28,13.32,5.64,13.32,12.48S169.64,52,161.72,52c-8.4,0-14.46-4.26-15.36-12.24h4c1,5.94,5.58,9.24,11.52,9.24,5.46,0,9.84-3.12,9.84-7.92,0-5.34-3.12-7.62-10.86-9.54s-12.54-4.8-12.54-11.46S154.4,9,161.72,9C170,9,174.32,14.18,175.1,20.9Z" transform="translate(-2.94 -8.46)"/>
	<path class="cls-1" d="M202,12.86V51.2h-3.72V12.86H183.08V9.8h34.08v3.06Z" transform="translate(-2.94 -8.46)"/>
	<path class="cls-1" d="M260.72,30.5C260.72,43,253.58,52,241.46,52S222.26,43,222.26,30.5,229.4,9,241.46,9,260.72,17.9,260.72,30.5Zm-4.14,0c0-11.64-6.18-18.54-15.12-18.54S226.4,18.86,226.4,30.5,232.58,49,241.46,49,256.58,42.08,256.58,30.5Z" transform="translate(-2.94 -8.46)"/>
	<path class="cls-1" d="M300.62,51.2h-4.14a38.23,38.23,0,0,1-2.34-10.62c-.54-4.38-2.34-7.8-6.78-8-1.08-.06-2.28-.06-3.24-.06h-8.46V51.2h-3.72V9.8h12.18a42.91,42.91,0,0,1,5.64.24c6.12.78,10.2,4.14,10.2,10.74a9.74,9.74,0,0,1-7.8,9.84c3.54,1.44,5.28,5.22,5.7,9.54C298.46,45.86,299.18,48.86,300.62,51.2ZM284.18,29.36c1.8,0,2.82,0,4.2-.12,4.56-.36,7.56-3.3,7.56-8.16s-2.58-7.26-7.08-7.92a36.11,36.11,0,0,0-4.74-.24h-8.46V29.36Z" transform="translate(-2.94 -8.46)"/>
	<path class="cls-1" d="M324.68,51.2H321V34.7L306.32,9.8h4.26L323,31,335.12,9.8h4.26l-14.7,24.84Z" transform="translate(-2.94 -8.46)"/>
</svg>